<svg xmlns="http://www.w3.org/2000/svg" viewBox="0 0 640 104">
<path d="M1.6,84.3L0,84.7c0-0.1,0.4-0.6,1.2-1.4c0.3-0.2,0.5-0.4,0.6-0.6c0.1,0,0.1,0,0.1-0.1c0.1,0,0.1,0,0.2,0l0.1,0.1L2,82.9l0,0.1L1.6,84.3z" />
<path d="M38.6,97.3c0.3,0,0.8-0.5,1.3-1.6c0.6-1,1.2-2.4,1.8-4.2c0.3,0.1,0.5,0.3,0.5,0.7c0,0.4-0.1,0.9-0.3,1.5c-0.2,0.6-0.5,1.4-0.9,2.3c-0.2,0.2-0.3,0.4-0.3,0.5c-0.2,0.6-0.6,1.6-1.1,3c-0.5,1.5-0.9,2.5-1.2,3.3c-0.3,0.7-0.7,1.1-1.1,1.1c-0.8-0.4-1.6-0.9-2.4-1.4c-0.8-0.5-1.7-1.1-2.5-1.7c-0.8-0.7-1.5-1.4-2.1-2.2c-0.6-0.8-0.9-1.7-1-2.6c-0.1-1.2,0-2.6,0.3-4.2c0.3-1.6,0.7-3.2,1.2-4.8c0.5-1.6,1.1-3.1,1.7-4.7c0.6-1.6,1.2-3,1.9-4.4L34,77.4c-0.6,0-1.2,0.1-2,0.3c-0.8,0.1-2.5,0.5-5,0.9c-1.9,0.4-2.9,0.6-3,0.6c-0.3-0.4-0.7-0.5-1.2-0.5c-0.6,0-1.1,0.3-1.5,0.7c-0.4,0.4-0.7,1-0.9,1.8c-0.3,0.9-0.7,2.2-1.1,3.9c-0.4,1.6-0.8,3.3-1.1,5.1c-0.4,1.8-0.7,3.5-1,5.2c-0.3,1.7-0.5,3-0.7,4.1c-0.6,0-1.1,0-1.5-0.2c-0.4-0.2-0.8-0.5-1.3-1c-0.3-0.3-0.5-0.5-0.6-0.6C13,97.9,12.8,98,12.5,98c-0.2,0-0.6-0.1-1.1-0.3l0.3-1.1c-1.1-0.7-2-1.3-2.5-2c-0.5-0.7-0.8-1.5-0.9-2.3c-0.1-0.9,0.1-2.2,0.5-4.1c0.3-1.9,0.5-3.4,0.6-4.5c-0.7-0.1-1.6-0.1-2.6-0.1c-0.5,0-1.2,0.1-2.2,0.3c-0.8,0.1-1.6,0.2-2.1,0.2c0.3-0.6,0.7-1.1,1.1-1.4c0.4-0.3,1.1-0.7,1.9-1.1c0.4-0.2,0.7-0.4,1.1-0.6l-1.4-0.7l4.8-2.4c0.1-0.5,0.4-1.1,0.9-1.8c0.3-0.6,0.5-1.1,0.7-1.4c0.4-1,0.9-2.7,1.4-5c0.5-2.3,1-3.9,1.4-4.9c0.9-2.1,2.2-4.9,3.9-8.5c1.7-3.6,3.1-6.5,4.1-8.7c1-2.2,1.8-4.2,2.4-6.2c0.1-0.1,0.1-0.1,0.2-0.3c0.1-0.3,0.5-0.5,1-0.5c1.4-0.1,2.5,0,3.1,0.5c0.7,0.4,1.3,1,2,1.9c0.7,0.9,1.3,1.6,1.9,2.1c0,0.4,0.1,1.1,0.2,2c0.2,0.9,0.3,1.6,0.3,2c0.1,1.6,0,3.4-0.5,5.3l-0.6,0c-0.3,1-1.1,3-2.6,5.9c-1.2,2.4-2,4.1-2.4,5.1c-0.8,0.5-1.4,1.1-1.8,1.8c-0.4,0.8-0.6,1.6-0.6,2.4l1.8-0.6c1-1.4,2.2-2.3,3.6-2.8c1.4-0.5,3.2-0.8,5.2-1c0.5,0,1.1,0,1.8,0.1c0.7,0.1,1.5,0.3,2.4,0.5c1.6-2.4,3.1-5,4.4-7.7c1.3-2.7,2.8-6.1,4.4-10.1c0.8-1.9,1.5-3.5,2-4.8c0.3-0.7,1-1.1,1.9-1.2c1.4-0.1,2.4,0.6,3.2,2.1c0.8,1.5,1.3,3.2,1.4,5.2c0.1,1.2,0.1,2.3-0.1,3.2c-0.2,1-0.5,1.7-1.1,2.2c0,1.3-0.2,2.5-0.7,3.6c-0.4,1.1-1.1,1.9-2,2.5c0,0.1,0,0.1,0.1,0.2c0,0.2,0,0.3,0,0.3c0,0.6-0.1,1.2-0.4,1.9
c-0.3,0.7-0.8,1.6-1.4,2.8c-0.5,1-0.8,1.6-1,2c-0.1,0-0.1,0-0.2,0c-0.1,0-0.2-0.1-0.3-0.1c-0.5,0-0.9,0.3-1.4,0.7
c-0.5,0.4-0.9,0.9-1.1,1.5c-0.3,0.5-0.6,1.2-1,2.2c-0.4,1-0.8,1.8-1,2.6c0,0.3,0.1,0.4,0.4,0.4c0.2,0,0.4-0.2,0.6-0.6l0.9-2.2
c0.4-1,1.1-1.5,1.9-1.6c-0.6,1.4-1.5,3.5-2.4,6.3c-1.4,3.9-2.6,6.9-3.8,8.9l-1-0.3c-0.6,0-1,0.4-1.4,1c-0.1,0.2-0.3,0.6-0.5,1
c-0.4,0.8-0.7,1.4-1,2c-0.2,0.4-0.3,0.8-0.2,1.4c0,0.4,0.2,1,0.4,1.7c0.2,0.6,0.2,0.9,0.2,1c-0.1,0.2-0.3,0.6-0.7,1.1
c-0.6,0.9-0.9,1.6-0.9,2C38.3,97.2,38.5,97.3,38.6,97.3z" />
<path d="M19,80.5c-0.2,0.4-0.5,1-0.7,1.8l0.8,0.2l0.7-2.6C19.5,79.9,19.2,80.1,19,80.5z" />
<path d="M29.9,84.1l1,0.3c-0.2,1-0.4,1.8-0.8,2.3c-0.4,0.6-0.7,0.9-0.8,0.9L29.9,84.1z" />
<path d="M37.7,93.4c-0.2,0.1-0.3,0.2-0.4,0.5l-0.7,1.8l0.6,0.6l1.2-3C38.1,93.3,37.9,93.4,37.7,93.4z" />
<path d="M41,90.3c-0.1,0.2-0.2,0.3-0.2,0.3c-0.1,0-0.2,0-0.2-0.2l-0.2-0.9l1.1-2c0.1-0.2,0.2-0.4,0.4-0.4c0.1,0,0.1,0,0.1,0.1l0.1,0l0.3,0.2L41,90.3z" />
<path d="M45,77.3l-3,7.1c0.5-0.1,0.8-0.4,1.2-0.9c0.3-0.5,0.6-1.1,0.9-1.9l2-4.9C45.5,76.7,45.2,76.9,45,77.3z" />
<path d="M89.6,46.7c0,1.4-0.1,2.8-0.2,4.3L88.4,51c-0.5,0.8-1.1,2.1-1.8,4.1c-0.8,2.1-1.6,3.7-2.2,4.9c-0.7,1.2-1.6,2.2-2.7,2.9l0.4,1L78.9,66c-1,1.7-1.7,3.4-2.4,5.1c-0.6,1.8-1.3,4-2.1,6.8c-0.4,1.6-0.7,3-1.1,4c0,0.1-0.1,0.3-0.2,0.5c-0.3,0.7-0.4,1.1-0.4,1.3c0,0.3,0.2,0.5,0.6,0.6c0.1,0,0.3-0.2,0.4-0.7c0.2-0.5,0.3-0.9,0.4-1.3c0.3-0.9,0.8-2.6,1.4-4.9c0.7-2.5,1.3-4.5,1.9-6.1c0.6-1.6,1.3-3,2.1-4.1c0.1,0,0.2,0,0.3-0.1l0.1,0c0.1,0,0.2,0,0.2,0.1c0,0.2-0.1,0.4-0.3,0.8l-0.1,0.1c-1.1,2.3-2.4,5.9-3.8,11c-0.8,2.8-1.4,4.9-1.8,6.3c-1.1,3.2-1.6,6-1.4,8.2c0,0.2,0.1,0.4,0.1,0.8c0.1,0.2,0.1,0.4,0.1,0.5c-1.6-0.4-3-0.9-4.4-1.6l-0.2-2.7c-0.5,0.5-0.8,1.2-0.8,2.1c-2.2-1.4-4-3.4-5.2-6c-0.2-2.8,0.1-5.8,0.8-9.1c0.8-3.3,1.8-6.7,3.1-10c1.3-3.4,2.7-6.6,4.2-9.7c1.5-3.1,3.3-6.7,5.5-10.8c2.4-4.6,4-7.8,4.8-9.5c0.3-0.4,0.6-0.7,1.1-0.9c0.5-0.3,0.9-0.4,1.4-0.4c0.4,0,1.1,0.1,2,0.3c0.3,0,0.5,0.1,0.7,0.1l0.2,2c0.9,0.3,1.6,0.8,2.3,1.6c0.7,0.8,1,1.7,1.1,2.7C89.6,44,89.6,45.3,89.6,46.7z" />
<path d="M72.2,85.5c-0.2,0-0.2,0.3-0.2,0.9l-0.8,2.4c0,0.4,0.1,0.6,0.3,0.6c0.2,0,0.3-0.1,0.4-0.4l1-3.1
C72.6,85.7,72.3,85.5,72.2,85.5z"/>
<path d="M93.5,97.2c-0.5-0.9-1.2-1.4-1.9-1.3c-0.3,0-0.5,0.1-0.7,0.3l-0.3-0.4c-0.6-0.9-1.1-1.7-1.7-2.3c-0.5-0.6-1.2-1.1-1.9-1.5
c-1-0.5-1.6-1.2-2.1-2.2c-0.4-1-0.7-2.3-0.8-4.1c0.2-0.4,0.3-0.7,0.4-1c0.7-1.4,1.3-2.5,1.9-3.2c0.5-0.7,1.2-1.1,2-1.1
c1-0.1,1.8,0.2,2.6,1c0.7,0.7,1.4,1.7,1.9,2.9c0.5,1.2,1,2.5,1.5,3.9c0.4,1.4,0.8,3,1.3,4.8l0,0.1L93.5,97.2z"/>
<path d="M121.3,42.4c-0.5,0.9-1.4,2.1-2.6,3.7c-2.3,3-4,5.7-5.2,7.9l-0.8,1.6c-1.3,2.4-2.4,4.5-3.4,6.4c-1,1.9-2.2,4-3.5,6.1
c-1.3,2.2-2.7,4.3-4.2,6.4c-1.4,2.1-2.9,3.8-4.2,5.2l-0.5-1.8c0.9-1.4,1.6-2.5,2-3.4c0.4-0.9,0.6-1.8,0.5-2.6l-2.5,2.2
c-0.1-1.8-0.2-3.2-0.1-4.1c0.1-0.9,0.3-1.8,0.8-2.6c0-0.1-0.1-0.2-0.2-0.5c-0.1-0.3-0.2-0.4-0.3-0.5c0.6-1,0.9-2,1.2-3
c0.2-1,0.3-2.1,0.2-3.2c1-1.6,1.7-3,2.1-4c0.4-1.1,0.8-2.3,1.1-3.7c0.4-1.3,0.7-2.6,1.1-3.6c0.4-1.1,1.1-2.5,2-4.2l2.2-0.6
c2.1-3.8,4-6.8,5.5-8.9c1.6-2.1,2.8-3.2,3.8-3.3c0.6,0,1.2,0.2,1.8,0.7c0.6,0.5,1.2,1.1,1.8,1.9c0.5,0.8,1,1.6,1.4,2.6
c0.4,0.9,0.6,1.7,0.6,2.5C122.1,40.6,121.8,41.5,121.3,42.4z"/>
<polygon points="107,42.9 105.8,42.8 107.2,40.3 107.9,40.8 "/>
<path d="M172.9,40.4c0,1.4-0.1,2.8-0.2,4.3l-0.9,0.1c-0.5,0.8-1.1,2.1-1.8,4.1c-0.8,2.1-1.6,3.7-2.2,4.9c-0.7,1.2-1.6,2.2-2.7,2.9
l0.4,1l-3.2,2.1c-1,1.7-1.7,3.4-2.4,5.1c-0.6,1.8-1.3,4-2.1,6.8c-0.4,1.6-0.7,3-1.1,4c0,0.1-0.1,0.3-0.2,0.5
c-0.3,0.7-0.4,1.1-0.4,1.3c0,0.3,0.2,0.5,0.6,0.6c0.1,0,0.3-0.2,0.4-0.7c0.2-0.5,0.3-0.9,0.4-1.3c0.3-0.9,0.8-2.6,1.4-4.9
c0.7-2.5,1.3-4.5,1.9-6.1c0.6-1.6,1.3-3,2.1-4.1c0.1,0,0.2,0,0.3-0.1l0.1,0c0.1,0,0.2,0,0.2,0.1c0,0.2-0.1,0.4-0.3,0.8l-0.1,0.1
c-1.1,2.3-2.4,5.9-3.8,11c-0.8,2.8-1.4,4.9-1.8,6.3c-1.1,3.2-1.6,6-1.4,8.2c0,0.2,0.1,0.4,0.1,0.8c0.1,0.2,0.1,0.4,0.1,0.5
c-1.6-0.4-3-0.9-4.4-1.6l-0.2-2.7c-0.5,0.5-0.8,1.2-0.8,2.1c-2.2-1.4-4-3.4-5.2-6c-0.2-2.8,0.1-5.8,0.8-9.1c0.8-3.3,1.8-6.7,3.1-10
c1.3-3.4,2.7-6.6,4.2-9.7c1.5-3.1,3.3-6.7,5.5-10.8c2.4-4.6,4-7.8,4.8-9.5c0.3-0.4,0.6-0.7,1.1-0.9c0.5-0.3,0.9-0.4,1.4-0.4
c0.4,0,1.1,0.1,2,0.3c0.3,0,0.5,0.1,0.7,0.1l0.2,2c0.9,0.3,1.6,0.8,2.3,1.6c0.7,0.8,1,1.7,1.1,2.7C172.9,37.7,172.9,39,172.9,40.4z"
/>
<path d="M155.4,79.3c-0.2,0-0.2,0.3-0.2,0.9l-0.8,2.4c0,0.4,0.1,0.6,0.3,0.6c0.2,0,0.3-0.1,0.4-0.4l1-3.1
C155.8,79.4,155.6,79.3,155.4,79.3z"/>
<path d="M196,39.8l-0.6-0.6c-0.7,0.9-1.7,2.2-3,4c-2.2,3.2-4.1,5.6-5.6,7.2c-1.5,1.6-3,2.5-4.6,2.6l-3.6,0.3l-0.1-1.9
c0.4-0.3,1.2-1.9,2.2-4.8l1.8-1.1l-1.2-0.6l0.1-0.4c0.8-2.2,1.5-4.1,2.2-5.8c0.7-1.7,1.4-3.3,2.2-4.8c0.8-1.5,1.6-2.8,2.5-3.8
c0.9-1,1.7-1.5,2.6-1.6c1.3-0.1,2.5,0.7,3.5,2.3c1,1.6,1.6,3.6,1.8,5.8C196.5,37.8,196.4,38.8,196,39.8z"/>
<path d="M264.6,44.9c-0.3,1.2-0.8,1.8-1.5,1.8l-0.2-0.1c-0.1,0-0.1,0-0.2,0c-0.1,0-0.1,0-0.2,0c-0.1-0.1-0.1-0.1-0.2-0.1
c-0.6,0-1,0.4-1.4,1.1c-0.3,0.7-0.6,1.6-0.8,2.6c-0.1,0.5-0.2,0.8-0.3,0.9l-1.4,0.1c0,0.4,0.2,0.7,0.5,0.8c0.3,0.1,0.7,0.3,1.2,0.4
l0.3,0.1c-0.3,0.8-1.1,1.2-2.3,1.3l-1.8,7.7l1-0.6l1.4-5.6l0.6,1.3l-0.9,4.4c-0.2,0.8-0.4,1.5-0.7,2c-0.3,0.5-0.7,0.8-1.1,0.9
c-0.4,0-0.6,0.2-0.7,0.4c-0.1,0.3-0.2,0.7-0.2,1.3c0,0.5-0.1,0.8-0.1,1l-0.7-0.7l-0.5,0.5c0.1,0.1,0.2,0.3,0.5,0.6
c0.6,1,1,1.7,1,2.2c0,0.6-0.1,1.4-0.3,2.3c-0.3,0.9-0.8,2.2-1.4,4c-0.6,1.4-1,2.4-1.1,3l-1.5-1.2c-0.1,0.1-0.3,0.3-0.7,0.4
c-0.2,0.1-0.4,0.1-0.8,0.1c-0.8,0.1-1.6-0.2-2.5-0.7c-0.9-0.5-1.7-1.2-2.4-2s-1.4-1.8-1.9-2.7c-0.5-1-0.8-1.8-0.8-2.6
c0-0.6,0.1-1.4,0.4-2.6c0.3-1.1,0.7-2.4,1.2-3.9c0.5-1.5,1.1-2.9,1.6-4.3c0.6-1.4,1.3-3.2,2.2-5.5c1.5-3.5,2.4-5.9,2.9-7.2l-0.3-0.7
c-0.4,0.3-1.3,0.8-2.5,1.6c-1.9,1.1-3.3,2-4.3,2.8c-1,0.8-1.5,1.6-1.5,2.5l-14.1,14c-0.6-0.6-1.1-0.9-1.7-0.9
c-0.3,0-0.6,0.1-1.1,0.3c-0.7,0.2-1.2,0.3-1.5,0.4c-1,0.1-1.8-0.5-2.6-1.7c-0.8-1.2-1.5-2.9-2.3-4.9c0.4-1.9,1-4.1,1.7-6.5
c0.7-2.4,1.6-5.1,2.7-8.1l-1-1.6c-1.4,1.4-2.8,3.1-4.2,5.1c-1.4,2-2.7,4.2-3.9,6.5c-1.2,2.3-2.4,4.8-3.7,7.6
c-1.3,2.7-3.1,6.7-5.5,11.8c-0.7,1.5-1.1,2.5-1.3,2.9c-0.3-0.1-0.5-0.3-0.5-0.6c0-0.4,0.2-1.2,0.7-2.4c-0.5,0-0.8,0.3-1.1,0.8
c-0.3,0.5-0.6,1.2-0.9,2.2c-0.2,0.8-0.2,1.5-0.2,2.3c0.1,0.9,0.3,1.7,0.6,2.4c-0.4,0.4-0.8,0.6-1.3,0.6c-0.9,0.1-1.8-0.2-2.8-0.7
c-1-0.6-2-1.3-2.9-2.1c-0.9-0.9-1.7-1.7-2.3-2.6c-0.6-0.9-0.9-1.5-1-2c0-0.5,0.2-1.5,0.8-3c0.6-1.5,1.4-3.2,2.4-5.1
c1-1.9,2-3.9,3-5.9c1-2,2.2-4.2,3.4-6.4c2.4-4.5,4.6-8.3,6.6-11.3c2-3,4.2-5.6,6.7-7.8c0.5-0.8,1-1.7,1.5-2.6
c0.6-0.9,1.2-1.7,1.8-2.5c0.7-0.8,1.3-1.5,2.1-2c0.7-0.6,1.5-0.9,2.2-0.9c1.9-0.1,3.4,0.5,4.6,2c1.2,1.5,2.5,3.6,3.8,6.5
c0.3,0.6,0.5,1.2,0.8,1.7c-0.1,0.7-0.1,1.5,0,2.4c0.2,2,0.6,3.6,1.2,5c0.5-0.4,1.5-1.3,3.1-2.6c2.5-2.2,4.2-3.6,5.3-4.3
c0.1,0,0.1,0,0.2-0.1c0.1,0,0.2,0,0.3,0c0.5,0,1,0.2,1.4,0.8c0.6-0.5,0.9-1.1,0.8-1.8c0-0.2-0.1-0.5-0.2-0.7
c2.3-1.7,4.6-3.2,6.9-4.5c2.3-1.3,3.9-2,4.8-2.1c0.7-0.1,1.6,0.1,2.5,0.6c0.9,0.4,2,1.1,3.2,1.8c0.1,0.3,0.5,1,1.1,2.1
c0.9,1.5,1.5,2.7,1.9,3.7c0.4,1,0.7,2,0.7,3C265.1,42.5,265,43.8,264.6,44.9z"/>
<polygon points="204.5,71.5 203.7,73.2 204.3,73.7 205.1,71.9 "/>
<path d="M204.9,70.6l0.5,0.4c0-0.1,0.1-0.3,0.2-0.5c0.2-0.4,0.3-0.6,0.3-0.7c0-0.2-0.1-0.3-0.4-0.4L204.9,70.6z"/>
<path d="M254.4,62.2c0,0.2,0.1,0.4,0.1,0.7c0,0.2,0,0.3,0,0.3c0.5-0.4,0.7-1,0.6-1.8c0-0.4-0.2-0.6-0.5-0.7
C254.6,60.9,254.4,61.4,254.4,62.2z"/>
<path d="M257.9,52.4L257.9,52.4l-0.2,0.2c-0.8,1.3-1.3,2.5-1.8,3.4c-0.4,1-0.6,2-0.5,3.2c0,0.3,0.1,0.8,0.3,1.3l0,0.2l0.1,0
L257.9,52.4z"/>
<path d="M258.9,47.6l-0.7,2.7c1-0.8,1.4-1.4,1.4-1.9l-0.1-0.1l0-0.1L258.9,47.6z"/>
<path d="M260,46.9l0.8-2.7c-0.4,0-0.7,0.2-0.9,0.5c-0.2,0.3-0.4,0.7-0.5,1.4c-0.1,0.4-0.3,0.7-0.4,1L260,46.9z"/>
<path d="M261.6,51.1l-0.9,0.1c0.1-0.4,0.4-0.7,0.7-1.1c0.3-0.4,0.6-0.6,0.8-0.7L261.6,51.1z"/>
<path d="M328.4,32.9c-1.9,1-3.5,2-4.8,3.1c-1.2,1-2.6,2.4-4.1,4.3c-0.4,0.4-0.7,0.7-0.9,0.9l-0.6-0.8c-0.3,0.5-0.8,1.2-1.5,2
c-0.7,0.8-1.7,1.8-2.8,3c-0.7,0.7-1.3,1.3-1.8,1.8c0,0.2-0.1,0.5-0.2,0.9c-0.1,0.4-0.2,0.7-0.3,1c-0.5,0.6-1.3,1.6-2.2,3
c-1,1.4-2,2.9-3,4.6c-1,1.7-1.9,3.3-2.6,4.9c-0.7,1.6-1,2.9-1,3.8c0.1,1.1,0.6,1.6,1.5,1.5c0.8-0.1,1.8-0.2,2.9-0.5
c1.1-0.3,2.9-0.8,5.2-1.5c3.2-0.9,5.5-1.6,7-1.9c1.3-0.1,2.1,0.1,2.6,0.7l-1.2,0.3c-2.7,0.8-4.8,1.5-6.5,2.1c-1.6,0.6-2.6,1.3-2.9,2
c0.5,0.3,1.2,0.4,2,0.4c0.7-0.1,1.4-0.2,2.1-0.6c0.7-0.3,1.2-0.7,1.6-1.1c0.8-0.2,1.9-0.5,3.4-0.9c2.2-0.6,4.3-1.2,6.2-1.7
c1.9-0.5,3.5-0.9,4.8-1.1l1.4,0.2l2-0.4l1,0.5l-4.4,1c-0.5,0.1-0.9,0.2-1.3,0.4c-0.3,0.2-0.5,0.4-0.5,0.7c0,0.2,0.1,0.4,0.3,0.6
l0.7,0.8c-0.2,0.1-1.1,0.5-2.7,1.1c-1.6,0.6-3,1.2-4.3,1.7l-8.5,3.3c-0.8,0.3-1.1,0.8-1.1,1.4c0,0.2,0.1,0.3,0.2,0.5l-0.9,0.3
c-1.3,0.4-2.3,0.7-3.1,0.9c-0.8,0.2-1.6,0.4-2.3,0.4c-0.3,0-0.8-0.2-1.4-0.6c-0.5-0.4-1-0.6-1.2-0.6c-0.6,0-1.3-0.2-2.1-0.6
c-0.5-0.3-1.1-0.5-1.6-0.7c-0.5-0.1-1.1-0.2-1.8-0.1c-0.4-0.3-0.8-0.8-1.4-1.5c-0.6-0.7-1.2-1.4-1.8-2.2c-0.6-0.8-1.2-1.5-1.7-2.3
c-0.5-0.7-0.9-1.3-1.2-1.8c-0.4-0.6-0.7-1.5-0.8-2.9l-0.2-2.3c0.6-0.6,0.9-1.2,1.1-2c0.1-0.8,0.1-1.7,0-2.9l0.9,0.4
c0.1-0.3,0.2-0.6,0.2-1c0-0.1,0-0.3,0-0.6c-0.1-0.3-0.1-0.5-0.1-0.7c0-0.3,0-0.5,0.1-0.8c0.4-1,0.9-2.1,1.4-3.1
c0.5-1.1,1-2.1,1.6-3.1c0.6-1,1.1-1.8,1.5-2.5c0.5-0.7,0.8-1,1.1-1c0.3,0,0.4,0.1,0.4,0.2c0,0.1,0,0.2-0.1,0.3
c0,0.2-0.1,0.3-0.1,0.4c0,0.2,0.2,0.2,0.4,0.2c0.2,0,0.5-0.2,0.7-0.6c0.3-0.4,0.6-1,1-1.7c0.4-0.8,0.7-1.4,0.9-1.7
c0.2-0.4,0.5-0.6,0.7-0.6l1-0.1c-0.2-0.3-0.4-1-0.6-2.1c0-0.1,0-0.1,0-0.3l0.6,0c0.4-1.3,1.5-2.9,3.3-4.7c1.8-1.8,3.9-3.7,6.2-5.4
c2.3-1.8,4.5-3.3,6.6-4.5c2.1-1.2,3.5-1.9,4.2-1.9c0.5,0,1.1,0.1,2,0.3c0.8,0.3,1.7,0.6,2.5,1c0.3,0.5,0.8,1.3,1.5,2.3
c0.7,1,1.2,1.8,1.6,2.5c0.3,0.7,0.5,1.5,0.6,2.4c0,0.2,0,0.3,0,0.5c0,0.3,0,0.5,0,0.6C332.1,31.1,330.3,31.9,328.4,32.9z"/>
<polygon points="299.3,46.9 298.3,49 299.1,49.5 300,47.7 "/>
<path d="M300.8,45.5c-0.1,0-0.2,0-0.3,0c-0.4,0-0.7,0.3-1,0.8l0.9,0.4l0.6-1.2C301,45.5,300.9,45.5,300.8,45.5z"/>
<polygon points="301.9,60.3 301.4,61.5 302,62.2 302.8,60.2 "/>
<path d="M305,54.5l-0.9,1.7l-0.2,0.3c-0.2,0.4-0.4,0.8-0.5,1.1c-0.1,0.3-0.2,0.7-0.1,1l0,0.3c0.1,0.1,0.1,0.1,0.1,0.2l2.3-4.1
L305,54.5z"/>
<polygon points="308.2,49.4 307.8,50.2 308.4,50.7 309,49.8 "/>
<path d="M309.4,49.3c0.7-0.9,1.2-1.4,1.4-1.8c0.2-0.3,0.3-0.6,0.2-0.8c-0.6,0-1.4,0.8-2.4,2.2L309.4,49.3z"/>
<path d="M315.8,73.9l2.7-1.1c0.3,0.2,0.5,0.4,0.5,0.6c0,0.5-0.5,0.7-1.6,0.8C316.9,74.2,316.3,74.1,315.8,73.9z"/>
<path d="M325.3,70.3c-1,0.7-1.9,1.2-2.6,1.6c-0.7,0.4-1.3,0.6-2,0.6c-0.5,0-0.9,0-1.2-0.2c0.7-0.3,1.8-0.8,3.5-1.4
C323.9,70.6,324.7,70.4,325.3,70.3L325.3,70.3z"/>
<path d="M322,62.2c0.6-0.2,1.1-0.3,1.4-0.4c1.7-0.5,3.3-0.9,4.7-1.2c1.4-0.3,2.5-0.5,3.3-0.6c-0.1,0.7-0.7,1.2-1.8,1.6
c-1.1,0.4-2.4,0.7-3.9,0.8C323.9,62.6,322.7,62.5,322,62.2z"/>
<polygon points="331.6,66.1 330.7,65.1 333,64.6 334.1,65.1 "/>
<path d="M356.1,58.4c-0.5,0-1,0.2-1.6,0.6c-0.6,0.4-1.3,0.8-2.1,1.3l-0.9,0.6c-0.2,0.4-0.4,0.8-0.7,1.3l-0.1,0.4l6.2-3.9
C356.7,58.5,356.5,58.4,356.1,58.4z"/>
<path d="M352.5,59.2c0.5-0.3,1.1-0.6,1.5-1c0.5-0.3,0.8-0.7,0.9-1.2c-0.2,0.1-0.4,0.2-0.8,0.3c-0.4,0.1-0.7,0.3-0.9,0.4l-0.9,1.5
C352.3,59.3,352.4,59.2,352.5,59.2z"/>
<path d="M359,57.4c0.8-0.5,1.4-0.9,1.8-1.2l0-0.1c-1,0.1-1.7,0.3-2.1,0.5c-0.4,0.2-0.6,0.7-0.8,1.3C358,58,358.4,57.8,359,57.4z"/>
<polygon points="368.9,64.3 368.7,65.4 369.2,65.4 369.4,64 "/>
<path d="M370,43.6c0,0.1,0,0.2-0.1,0.3c0,0.1,0,0.1,0,0.2c0,0.3,0.3,0.4,1,0.4l0-0.9L370,43.6z"/>
<polygon points="370.7,42.2 370.4,42.1 370.1,43.1 370.9,43 "/>
<path d="M381.8,48c-0.5-0.9-1.1-1.8-1.8-2.8c-0.6-0.8-0.9-1.3-0.9-1.6c0-1,0-2.1,0.2-3.1c0.1-1.1,0.4-2.3,0.7-3.6l0-0.1l-0.3-0.2
c-0.1,0-0.2-0.1-0.3-0.2c0.3-0.2,0.5-0.6,0.6-1.3c0.1-0.7,0.2-1.4,0.3-2.3c0-0.9,0.1-1.7,0-2.6c0-0.8-0.1-1.6-0.1-2.4
c-0.5-0.6-0.9-1.9-1.1-3.8c-0.2-1.5-0.5-2.6-0.8-3.5c-0.3-0.9-0.9-1.6-1.8-2.3l-0.1,0l-0.1-0.1c-0.1,0-0.4,0.1-0.7,0.3
c-0.4,0.2-0.8,0.3-1,0.3c-0.3,0-0.5-0.2-0.6-0.6l1.5-0.6c-0.6-0.4-1.4-0.8-2.4-1.2c-1-0.4-1.9-0.7-2.6-0.8c0,0.5-0.2,0.8-0.5,0.9
c-0.3,0.1-0.8,0.3-1.4,0.4c-0.6,0-0.9,0.1-1.1,0.3c-1.8,1.7-3.6,3.5-5.4,5.5c-1.8,2-3.5,4.3-5.1,6.8c-1.2,1.9-3.2,4.8-6,8.8
c-2.2,3.1-4,5.8-5.6,8.1c-1.6,2.3-3.1,4.8-4.5,7.3c-1.4,2.5-2.6,5.1-3.5,7.6s-1.5,5-1.6,7.4l1.4-0.1c-0.1,0.2-0.1,0.5-0.1,0.7
c0,0.6,0.6,1.3,1.6,2.3c1.2,1.1,1.8,2,1.9,2.8l5.5,1.9c0.6-0.8,1.3-2.7,2.3-5.5c0.5-1.4,0.9-2.4,1.1-3.1l-0.4-1l0.3-1.1
c1-0.8,2.5-1.8,4.3-3c1.8-1.2,3.8-2.4,5.9-3.6c2.1-1.2,4.1-2.2,6-3c1.9-0.8,3.5-1.3,4.7-1.4l0,0.3c0.1,0.1,0.1,0.2,0.1,0.2
c0,0.2,0,0.5-0.1,0.9c0,0.4,0,0.8,0,1.1l-1.6-1.7c0,0.3-0.1,1.2-0.2,2.7c0,1.3-0.1,2.1-0.1,2.6c0.1,0,0.1,0,0.2,0
c0,0.1,0,0.1,0.1,0.1c0.3,0,0.5-0.2,0.5-0.7c0.1-0.4,0.1-1.1,0.1-1.9c0-0.2,0-0.3,0-0.3l1.1,0.3c0,1.1-0.2,2.3-0.5,3.6
c-0.3,1.3-0.6,2-0.8,2l0-0.5c0-0.2,0.1-0.4,0-0.5c-0.1-0.9-0.3-1.3-0.7-1.3c-0.1,0.6-0.3,1.7-0.6,3.3c-0.4,1.7-0.6,3-0.6,3.8
c0,0.6,0.3,0.8,0.8,0.8c0,0.6-0.3,0.9-0.8,0.9l0,1.2c0.5,0,0.9,0.1,1.1,0.4c0.2,0.3,0.4,0.9,0.4,1.9c0.1,0,0.1,0,0.2,0
c0.1-0.1,0.2-0.1,0.2-0.1c0.4,0,1.2,0.2,2.3,0.7c1.7,0.7,2.9,1.1,3.9,1c0.4-1.6,0.7-3,0.9-4.1c0.2-1.2,0.3-2.4,0.2-3.7
c-0.2,0.2-0.5,0.4-0.7,0.4c-0.1,0-0.1,0-0.2-0.1c0.8-1.3,1.2-2.3,1.1-3.1c0-0.4-0.2-0.9-0.5-1.6c0.7-0.8,1.1-1.7,1-2.7
c0-0.6-0.3-1-0.7-1.1c0.5-0.5,0.8-1.1,1-1.9c0.2-0.8,0.3-1.7,0.4-2.9c0.1-1.1,0.2-1.9,0.3-2.3c0.4-0.1,1.1-0.3,2.1-0.5
c1.1-0.3,1.9-0.4,2.4-0.5C382.5,49.9,382.3,48.9,381.8,48z M373.2,32.1c-0.3,2.1-0.6,3.9-0.8,5.4c-0.2,1.4-0.5,2.5-0.7,3.3l-1.5-1.2
c0,0.2-0.2,0.6-0.3,1.2c-0.5,1.6-0.7,2.9-0.7,3.9l-1.8,0.7c-1.2,0.4-2.2,0.7-3,1.1c-0.8,0.3-1.8,0.8-2.8,1.3
c-1.4,0.7-2.9,1.8-4.5,3.3c-0.7,0.6-1.2,1.1-1.6,1.4c0.4-0.7,1.1-1.9,2-3.6c1.6-2.7,2.6-4.5,3.1-5.3c1-1.4,2.1-3.1,3.2-4.9
c-0.3-0.4-0.4-0.9-0.4-1.3c0-0.6,0.4-1.5,1.3-2.8c0.1,0.1,0.2,0.2,0.2,0.4c0,0.2,0,0.5-0.2,1l-0.1,0.2l0.5,0.4
c1.9-3.1,3.7-5.5,5.1-7.4c1.5-1.9,2.6-2.9,3.3-3l0.3,0.8C373.8,28,373.5,29.6,373.2,32.1z"/>
<path d="M416.8,22c0,1.4-0.1,2.8-0.2,4.3l-0.9,0.1c-0.5,0.8-1.1,2.1-1.8,4.1c-0.8,2.1-1.6,3.7-2.2,4.9c-0.7,1.2-1.6,2.2-2.7,2.9
l0.4,1l-3.2,2.1c-1,1.7-1.7,3.4-2.4,5.1c-0.6,1.8-1.3,4-2.1,6.8c-0.4,1.6-0.7,3-1.1,4c0,0.1-0.1,0.3-0.2,0.5
c-0.3,0.7-0.4,1.1-0.4,1.3c0,0.3,0.2,0.5,0.6,0.6c0.1,0,0.3-0.2,0.4-0.7c0.2-0.5,0.3-0.9,0.4-1.3c0.3-0.9,0.8-2.6,1.4-4.9
c0.7-2.5,1.3-4.5,1.9-6.1c0.6-1.6,1.3-3,2.1-4.1c0.1,0,0.2,0,0.3-0.1l0.1,0c0.1,0,0.2,0,0.2,0.1c0,0.2-0.1,0.4-0.3,0.8l-0.1,0.1
c-1.1,2.3-2.4,5.9-3.8,11c-0.8,2.8-1.4,4.9-1.8,6.3c-1.1,3.2-1.6,6-1.4,8.2c0,0.2,0.1,0.4,0.1,0.8c0.1,0.2,0.1,0.4,0.1,0.5
c-1.6-0.4-3-0.9-4.4-1.6l-0.2-2.7c-0.5,0.5-0.8,1.2-0.8,2.1c-2.2-1.4-3.9-3.4-5.2-6c-0.2-2.8,0.1-5.8,0.8-9.1
c0.8-3.3,1.8-6.7,3.1-10c1.3-3.4,2.7-6.6,4.2-9.7c1.5-3.1,3.3-6.7,5.5-10.8c2.4-4.6,4-7.8,4.8-9.5c0.3-0.4,0.6-0.7,1.1-0.9
c0.5-0.3,0.9-0.4,1.4-0.4c0.4,0,1.1,0.1,2,0.3c0.3,0,0.5,0.1,0.7,0.1l0.2,2c0.9,0.3,1.6,0.8,2.3,1.6c0.7,0.8,1,1.7,1.1,2.7
C416.8,19.4,416.8,20.6,416.8,22z"/>
<path d="M399.3,60.9c-0.2,0-0.2,0.3-0.2,0.9l-0.8,2.4c0,0.4,0.1,0.6,0.3,0.6c0.2,0,0.3-0.1,0.4-0.4l1-3.1
C399.7,61,399.5,60.9,399.3,60.9z"/>
<path d="M453,15.7l1.2-0.3c3.8-1.1,6.8-1.9,8.9-2.5c2.1-0.6,4-1.1,5.6-1.4c2.1,0.4,3.8,0.9,5.2,1.7c1.4,0.8,2.4,1.9,3,3.2
c-0.5,0.5-0.8,1.2-0.7,2c0.1,0.9,0.4,1.8,1.2,2.7c-0.3,0.3-0.8,0.5-1.3,0.7l-0.2-0.5c-0.5-0.2-0.9-0.3-1.2-0.3
c-0.4,0-0.6,0.2-0.6,0.6c0,0.2,0.1,0.5,0.2,0.7c-1.1,0.3-3,0.7-5.8,1.1c-3.1,0.5-5.6,0.9-7.6,1.4c-2,0.5-4.1,1.3-6.1,2.3l-1.2,0.1
l-0.1-0.9c-0.7,0.1-1.3,0.4-1.8,1.2c-1.5,0.3-2.5,0.9-3.1,1.8c-0.6,0.9-1.3,2.7-2,5.5c-0.1,0.3-0.3,0.8-0.6,1.2
c-0.3,0.5-0.7,0.8-1,1.1l0.8,0.4c-0.2,1.2-0.5,2.3-0.9,3.5c-0.4,1.2-0.8,1.8-1.2,1.8c-0.3,0-0.4-0.3-0.5-0.6c0-0.2,0-0.3,0-0.4
l0-0.3c0-0.2-0.1-0.3-0.2-0.2c-0.3,0.1-0.5,0.3-0.6,0.7c-0.1,0.4-0.3,0.9-0.4,1.6c0,0.5-0.1,0.9-0.2,1.2c0.4,0.9,0.6,1.7,0.7,2.4
c-0.1,0.3-0.2,0.7-0.3,1c-0.2,0.8-0.3,1.3-0.4,1.6c-0.1,0.3-0.3,0.5-0.5,0.5c-0.2,0-0.4-0.1-0.5-0.3c-0.1-0.2-0.1-0.5-0.2-0.9
c0-0.5-0.1-0.8-0.2-1c-0.4,0.9-0.8,2.2-1.3,3.8l-0.3,1l0.7,0.4c0.3-0.7,0.7-1,1.1-1l0.2,0.1c0.1,0,0.2,0,0.3,0
c-1.4,5.1-2.5,9.4-3.1,13c-0.2,0-0.5,0-0.7,0.1l-0.7,0.1c-1.4,0.1-2.8,0-4.2-0.2l0.3-1c-0.9-0.2-1.5-0.7-1.8-1.6
c-0.3-0.8-0.6-2.1-0.8-3.7c-0.2-0.8-0.3-1.3-0.3-1.5c-0.5-0.5-0.8-1.1-0.8-1.7c0-0.5,0.1-1.6,0.5-3.2c0.4-1.6,1-3.8,1.7-6.4
c0.8-2.7,1.6-5.3,2.4-7.9c0.9-2.6,1.7-5.2,2.6-7.6l-6.7,0.5c-1.1,0.1-2.3,0.3-3.5,0.7c-0.7,0.2-1.3,0.4-1.7,0.4c-0.5,0-1,0-1.5-0.1
c-0.8-1-1.5-2.3-2.2-3.9c-0.7-1.6-1.1-3-1.2-4.2c-0.1-1.1,0.2-2,1-2.9c2.2,0.1,4.7,0,7.5-0.2c1.6-0.1,3.2-0.3,4.7-0.5
c1.6-0.2,3-0.5,4.2-0.8c1.8-0.5,3.2-1.3,4-2.2c0.8-0.9,1.6-2.2,2.2-3.8c0.6-1.5,1.3-2.7,2.1-3.5c0.7-0.8,2-1.2,3.8-1.4L453,15.7z"/>
<polygon points="443.9,38.6 443.2,40.2 443.7,40.8 444.3,39.2 "/>
<path d="M522.5,38c-0.5,0.5-1.3,1-2.2,1.6c-0.9,0.6-2,1.1-3.1,1.6c-1.1,0.5-2.2,0.9-3.1,1.2c-1.3,1.1-2.7,1.7-3.9,1.8
c-0.8,0.1-1.3,0-1.5-0.3c-0.3,0.3-0.4,0.6-0.4,0.9c0,0.6,0.7,0.9,1.9,0.8c1.4-0.1,3.2-0.7,5.2-1.7c0.6,0,0.9,0,0.9,0.2l-0.1,0.1
c-0.5,0.3-0.9,0.5-1,0.6c-1.2,0.7-2.2,1.2-3.1,1.7c-0.9,0.5-1.6,0.8-2.1,0.8c-0.9,0.1-1.6,0.2-2.3,0.4c-0.7,0.2-1.5,0.5-2.6,1
l-0.2,0.1c-2.5,1.1-5.7,2.5-9.5,4.3c-3.8,1.8-7.1,3.4-10,4.8c-0.3,0.1-0.8,0.5-1.6,1.2c-1,0.8-1.7,1.3-2.1,1.4
c-0.5,0.1-1.2,0.2-2,0.4c-0.8,0.1-1.6,0.2-2.2,0.3c-0.6,0-1.1-0.2-1.5-0.8l-2,0.1c-0.3-0.3-0.8-0.8-1.5-1.5
c-0.6-0.8-1.1-1.3-1.5-1.6c-0.4-0.3-0.8-0.5-1.1-0.5l-1,0.1c0.1-3.5,0.8-7.6,2.3-12.2c1.4-4.6,3.2-9.2,5.4-13.9
c2.2-4.7,4.5-9.1,6.8-13.2c2.4-4.1,4.5-7.6,6.5-10.6l-0.1-1.4c2.3-0.2,4.1,0.5,5.5,1.9s2.2,3.3,2.3,5.5c0,0.2-0.2,0.9-0.5,2.1
c-0.4,1.2-0.8,2.6-1.4,4.2c-0.6,1.6-1.1,3.1-1.6,4.5c-0.5,1.4-1,2.5-1.3,3.2c-0.3,0.7-1.2,1.9-2.5,3.7c-1.1,1.5-1.9,2.5-2.3,3.1
c-0.3,0.4-0.6,1.3-0.9,2.6c-0.3,1.1-0.6,1.8-0.7,2.1c-0.1,0.4-0.5,0.9-1.2,1.6c-0.5,0.7-0.9,1.2-1.2,1.7c-0.3,0.5-0.4,1-0.3,1.5
c0,0.3,0.1,0.7,0.2,1c2.2-0.8,3.8-1.5,4.8-1.8c1-0.4,1.8-0.6,2.3-0.8l0.3-0.1c1.2-0.4,2.3-0.7,3.1-0.7c1.6-0.1,2.7,0.3,3.5,1.4
c0.2-0.2,0.9-0.7,2.1-1.2c1.2-0.6,1.9-0.9,2.1-0.9c0.4,0,0.8,0,1.3,0.1c0.4,0.1,0.8,0.2,1.2,0.2c0.4,0,1.1-0.2,2.2-0.6
c1.1-0.4,2.4-0.9,4-1.5l2.1-0.8c0.1,0.2,0.5,0.3,1.1,0.3l0,0.1c-0.2,0.1-0.8,0.3-1.8,0.7c-1.5,0.6-2.8,1.1-3.7,1.5
c-1,0.4-1.8,0.9-2.6,1.4l0.9,0.4c0.7-0.3,1.8-0.8,3.1-1.5c1.8-0.9,3.3-1.6,4.5-2.1c1.2-0.5,2.2-0.9,3.1-1.2c0.5,0.1,1,0.3,1.5,0.6
c0.5,0.2,0.8,0.4,0.9,0.5c0.2-0.1,0.6-0.2,1-0.5c1.2-0.7,2-1,2.2-1c0.2,0,0.3,0,0.3,0.2C523.2,37.1,523,37.5,522.5,38z"/>
<path d="M482.5,39c-0.1,0.2-0.2,0.6-0.3,1.1c-0.3,0.8-0.5,1.4-0.5,1.7c0,0.3,0.2,0.6,0.6,0.7l1.3-3.4L482.5,39z"/>
<path d="M487,32c-0.4,0-0.7,0.2-0.9,0.6c-0.2,0.4-0.2,0.7-0.2,1l1.2-0.1L487,32z"/>
<path d="M505.6,46.2c-1.1,0.3-2.4,0.8-4,1.4c-1.5,0.6-3.2,1.3-5.2,2.2c-1.9,0.9-3.8,1.7-5.6,2.6c-1.8,0.9-3.3,1.8-4.7,2.5l0.1,0.3
l20.6-8.6L505.6,46.2z"/>
<path d="M498.8,43.5l1.8-1.2c-0.2-0.1-0.5-0.1-0.8-0.1c-0.6,0-1.1,0.3-1.6,0.6L498.8,43.5z"/>
<path d="M514.8,37.2c-0.5,0-0.8-0.1-0.8-0.3c0-0.1,0-0.1,0.1-0.1l1.7-0.6c0.1,0,0.1,0,0.2-0.1c0.1,0,0.1,0,0.2,0
c0.2,0,0.3,0,0.4,0.1s-0.1,0.2-0.3,0.4L514.8,37.2z"/>
<path d="M517.5,43.5c-0.1,0-0.1,0-0.2,0.1c-0.1,0-0.2,0-0.3,0c-0.3,0-0.5-0.1-0.7-0.3l0-0.1l1.1-0.6c1.5-0.8,2.6-1.3,3.2-1.6
c0.6-0.3,1-0.4,1.3-0.4c0.2,0,0.4,0,0.6,0.1L517.5,43.5z"/>
<path d="M520.9,36.6c-0.3,0.2-0.5,0.3-0.6,0.5c-0.4-0.3-0.9-0.5-1.3-0.7c0.2-0.1,0.6-0.3,1.4-0.7c0.8-0.3,1.3-0.5,1.6-0.5
c0.1,0,0.2,0,0.3,0.1C522.3,35.5,521.8,36,520.9,36.6z"/>
<path d="M551.4,45.6l-1.3-1l-0.1,0.1c-0.4,0.4-0.7,0.7-1,1c-0.2,0.3-0.3,0.7-0.3,1c0,0.5,0.3,1.1,0.9,1.6c-0.5,0.9-1.1,2.2-1.8,3.8
c-0.7,0.4-1.4,0.9-1.9,1.6l0.8,1.7l-0.3,0.6l-1.1-1.3c-1.2,1.9-2,4.3-2.2,7.3l1.7,0.6c-0.2,1.2-0.3,2.5-0.3,3.9
c-0.7,0.4-1.5,0.6-2.6,0.7c-2.5,0.2-4.7-0.4-6.5-1.7c-0.1-0.8-0.5-1.2-1.3-1.1c-0.6-0.7-1-1.3-1-1.7c0.2-1.8,0.6-3.7,1.3-5.7
c0.7-2,1.6-4.5,2.8-7.7c2.1-5.3,3.6-9.4,4.3-12.2l-0.6-0.5c-2.4,0.2-4.8-0.2-7.2-1.1c-0.1,0.3-0.4,0.5-0.7,0.5
c-0.3,0-0.6-0.1-0.9-0.4l-6.1-5.1l-1,0.1c-1.8-2.3-2.9-5-3.1-7.9c-0.2-2.5,0.1-5.1,1-7.8c0.8-2.7,2-5.7,3.6-8.8l1.2,0.4
c0.2-0.9,0.6-1.4,1.2-1.5c0.1,0,0.4,0.1,0.9,0.2c0.5,0.1,1.2,0.3,2,0.6c1.3,0.4,2.8,0.9,4.2,1.4l1.5,2.3c-0.1,1.1-0.3,2.1-0.6,2.9
c-0.3,0.9-0.7,1.9-1.1,3c-0.5,1.3-0.9,2.4-1.2,3.4c-0.3,1-0.5,2-0.5,3.2l-1.2,1.1c-0.1,1.1-0.1,2-0.1,2.7c0.2,2,1,3.8,2.5,5.5
c0.2,0,0.4,0,0.7-0.1c0.2,0,0.5,0,0.8,0c2.4-0.2,4.5-0.9,6.4-2.1c1.9-1.2,3.3-2.7,4.5-4.6l8.1-13.4l0.8,1.1l3-5.2
c0.3-0.5,0.7-0.7,1.1-0.8c0.3,0,0.7,0.1,1.1,0.3c1.3-1.2,2.5-1.8,3.7-1.9c0.6,0,1.2,0.1,1.8,0.3c0.1,1,0.7,1.5,1.9,1.5
c1.1,1.2,1.8,2.9,2.3,4.9c-0.6,2-1.8,4.2-3.5,6.5c-0.1,0-0.3,0-0.7,0c-0.2,0-0.3,0-0.5,0c-0.9,0.1-1.5,0.3-1.9,0.8
c-0.4,0.5-0.7,1.2-1.1,2.3l-0.3,0.6l1.2,0.5l-0.3,0.5c-2,2.4-3.5,4.3-4.6,5.9c-1.1,1.5-1.8,3-2.1,4.4l-1.3-1
c0.1,1.1-0.1,2.2-0.5,3.1c-0.4,0.9-1,2-1.9,3.2c-0.4,0.7-0.7,1.2-0.9,1.5c-0.3,0.5-0.4,1.2-0.4,2.2c0,0.4,0,0.7,0,1l-0.9-0.5l0-0.3
c0-0.1,0.1-0.2,0.1-0.3c0-0.4-0.2-0.7-0.5-0.9l-0.1,0.2c-0.4,0.9-0.6,1.6-0.6,2c0,0.5,0.4,1.1,1.1,1.7L551.4,45.6z"/>
<polygon points="543.1,62.9 543,64.4 543.7,64.7 544.1,63.3 "/>
<path d="M545,62c-0.4-0.2-0.6-0.6-0.6-1.1c0-0.5,0.1-1,0.4-1.5c0.3-0.5,0.6-0.8,1.1-1l0.1,0.1L545,62z"/>
<path d="M551.1,49.6c-0.2,0.5-0.5,0.7-1,0.8c-0.1,0-0.1,0-0.3,0c-0.2,0-0.3-0.1-0.3-0.1l0.7-1.4L551.1,49.6z"/>
<path d="M565.4,19.9L565.4,19.9c0.6-0.8,1.1-1.1,1.5-1.1c0.2,0,0.4,0,0.6,0.1c-0.6,0.8-1.1,1.5-1.6,2L565.4,19.9z"/>
<path d="M613,15.2c0.9-1.4,1.8-2.9,2.8-4.5c1-1.6,2.1-3.2,3.3-4.8c1.2-1.6,2.3-3.1,3.5-4.3c1-0.7,2.4-1.2,4.4-1.4
c3.3-0.2,5.6,0,7,0.8l-1.6,1.3l0.2,0.3c0.3,0,0.7-0.2,1.3-0.4c0.6-0.2,1.1-0.5,1.3-0.7l2.6,2.4c-1.1,0.6-2.4,1.4-3.8,2.5
c-1.4,1.1-2.8,2.3-4.3,3.7c-1.5,1.4-2.9,2.8-4.2,4.4c-1.3,1.6-2.5,3.1-3.4,4.6c-0.1,0.2-0.2,0.3-0.3,0.3s-0.3,0-0.4-0.1
c-0.2-0.1-0.3-0.1-0.4-0.1c-0.1,0-0.1,0-0.2,0l-0.1,0.1c0,1-0.1,1.9-0.4,2.7c-0.3,0.8-0.9,1.9-1.7,3.2c-0.6,1-1,1.7-1.3,2.3
c-0.1,0.2-0.2,0.7-0.2,1.4c-0.1,0.7-0.2,1.3-0.3,1.7c0,0.2-0.2,0.4-0.6,0.8c-0.4,0.4-0.7,0.8-0.8,1.1c-0.8,3.4-2.3,8.5-4.4,15.2
c-1.2,3.7-1.8,5.6-1.8,5.7l-4-1.5l-0.4,1.2c-2.6-0.5-4.3-1.3-5.2-2.4c-0.9-1.1-1.6-3.2-2.2-6.3c0-0.2,0-0.4,0-0.6
c-0.1-0.3-0.1-0.5-0.1-0.7c0-0.5-0.1-1.2-0.1-2.1c0-1.1-0.1-1.9-0.1-2.2c-0.1-1-0.2-1.8-0.4-2.3c-0.8-1.8-1.2-3.6-1.3-5.3
c-0.1-0.7-0.1-1.8-0.1-3.1c0.1-1.3,0.1-2.2,0-2.9c0-0.1,0-0.3-0.1-0.8c-0.1-0.3-0.1-0.5-0.1-0.8l-0.7-3.3c-1.3,0.6-2.6,1.5-3.9,2.9
c-1.3,1.4-2.4,3.1-3.3,5.1l0.4,1.3c-1,2.2-2.4,5.8-4.2,10.9c-1.4,3.8-2.5,6.8-3.3,8.9c-0.8,2.1-1.7,3.9-2.6,5.3l-2.4,0.2
c-0.7,0.1-1.3-0.3-1.9-1c-0.6-0.7-1.3-1.7-2-2.9c-0.7-1.2-1.2-1.9-1.4-1.9l-0.8-3.7c0-0.2-0.1-0.5-0.1-0.8c0-0.3,0-0.6-0.1-0.7
c-0.1-0.8,0.1-1.8,0.5-2.9c0.1-0.2,0.2-0.5,0.3-0.9c2-6,4.4-11.2,7.4-15.6c3-4.4,6.6-9.2,10.9-14.2c0.9-1,1.6-1.8,2-2.3
c0.7,0.2,1.6,0.6,2.7,1.1c1.1,0.5,2.3,1.1,3.5,1.9c1.2,0.7,2.3,1.5,3.2,2.3c0.9,0.8,1.6,1.6,1.9,2.3c0.4,0.8,0.8,1.9,1.3,3.2
c0.4,1.3,0.9,2.9,1.5,4.7c0.5,1.5,0.8,2.6,1,3.3c1.2-2.6,2.6-5.4,4.1-8.2c1.5-2.9,3-5.5,4.4-7.8c1.4-2.3,2.6-4.3,3.7-5.8
c1.1-1.5,1.8-2.4,2.2-2.6l1.8-0.4c-1.8,2.1-3.5,4.2-4.8,6.4c-1.4,2.2-2.8,4.5-4.2,7c-0.4,0.7-0.7,1.2-1,1.7
c-0.1,0.2-0.2,0.3-0.2,0.4c-0.4,0.8-0.6,1.3-0.6,1.4l0,0.1l0.5,0.3C611.3,18,612.1,16.6,613,15.2z"/>
<path d="M589.2,10l-1.7,2.1c0.2,0.2,0.4,0.2,0.6,0.2c0.4,0,0.9-0.5,1.4-1.4c0.2-0.2,0.3-0.4,0.4-0.5L589.2,10z"/>
<path d="M616.7,35.2l-0.8-0.5l0-0.1c0-0.8,0-1.4,0.1-1.8c0.1-0.4,0.3-0.6,0.6-0.6c0.1,0,0.1,0,0.2,0.1c0.1,0,0.1,0,0.2,0L616.7,35.2
z"/>
<path d="M620.9,5.9l1.3-2l-0.7-0.3c-0.4,0.4-0.9,1.1-1.3,1.9C620.3,5.8,620.6,6,620.9,5.9z"/>
<path d="M622.1,14.8C622.1,14.8,622.1,14.9,622.1,14.8l-0.2,0.1l-0.2,0.4c-0.4,0.7-0.6,1.2-0.8,1.6c-0.2,0.4-0.2,0.7-0.2,0.9
c0,0.2,0.1,0.4,0.3,0.5l1.6-2.9C622.6,15,622.4,14.8,622.1,14.8z"/>
<path d="M624.6,12.2L624.6,12.2l0.1-0.2c0-0.3-0.2-0.4-0.5-0.4c-0.1,0-0.1,0.1-0.2,0.2l-1.5,2.3c0.5,0,0.7,0.1,0.8,0.4L624.6,12.2z"
/>
<path d="M629.9,4.2l0.2,0.8c0.1-0.1,0.2-0.2,0.4-0.3c0.3-0.3,0.6-0.5,0.7-0.7c0.2-0.2,0.2-0.6,0.2-1L629.9,4.2z"/>
<path d="M639.2,47.8c-0.5,0.9-1.1,1.8-1.7,2.7c-0.7,0.9-1.4,1.7-2.3,2.5c-0.8,0.8-1.6,1.3-2.3,1.6l-5.1-5l0.8-1.2
c-0.5-0.9-0.7-1.9-0.8-3c-0.2-2,0.3-3.8,1.3-5.5c1-1.7,2.1-2.6,3.4-2.7c1.3-0.1,2.7,0.7,4.1,2.4c1.4,1.7,2.6,3.7,3.5,6.1
C639.9,46.2,639.6,46.9,639.2,47.8z"/>
</svg>